<?xml version="1.0" encoding="utf-8"?>
<!-- Generator: Adobe Illustrator 16.0.0, SVG Export Plug-In . SVG Version: 6.00 Build 0)  -->
<!DOCTYPE svg PUBLIC "-//W3C//DTD SVG 1.1//EN" "http://www.w3.org/Graphics/SVG/1.1/DTD/svg11.dtd">
<svg version="1.1" id="圖層_1" xmlns="http://www.w3.org/2000/svg" xmlns:xlink="http://www.w3.org/1999/xlink" x="0px" y="0px"
	 width="57px" height="56px" viewBox="446.5 0 57 56" enable-background="new 446.5 0 57 56" xml:space="preserve">
<g id="vlpa">
	<g id="vlpb">
		<g id="vlpc">
			<g id="vlpd">
				<path fill="#330000" d="M456.671,0h37.094c5.625,0,10.172,4.547,10.172,10.171v35.658c0,5.624-4.547,10.171-10.172,10.171
					h-37.094c-5.623,0-10.171-4.547-10.171-10.171V10.171C446.5,4.547,451.048,0,456.671,0z"/>
			</g>
		</g>
	</g>
	<g id="vlpe">
		<g id="vlpf">
			<path fill="#FF9A00" d="M474.261,33.504h-8.902l-1.819,5.624c-0.048,0.216-0.239,0.358-0.455,0.335h-4.499
				c-0.263,0-0.335-0.145-0.263-0.431l7.706-22.185c0.071-0.239,0.145-0.502,0.239-0.789c0.096-0.503,0.144-1.029,0.144-1.556
				c-0.023-0.12,0.072-0.24,0.191-0.264h0.072h6.126c0.19,0,0.286,0.072,0.311,0.191l8.734,24.649c0.071,0.264,0,0.383-0.239,0.383
				h-5.001c-0.168,0.023-0.336-0.096-0.383-0.264L474.261,33.504L474.261,33.504z M466.746,28.646h6.079
				c-0.144-0.503-0.335-1.103-0.551-1.725c-0.215-0.646-0.43-1.34-0.646-2.058c-0.238-0.742-0.455-1.46-0.693-2.202
				c-0.239-0.742-0.455-1.436-0.646-2.13c-0.19-0.67-0.358-1.292-0.525-1.866h-0.049c-0.216,1.028-0.479,2.058-0.813,3.087
				c-0.359,1.148-0.718,2.345-1.101,3.542C467.464,26.516,467.105,27.641,466.746,28.646L466.746,28.646z"/>
			<path fill="#FF9A00" d="M487.185,18.428c-0.791,0.023-1.558-0.287-2.131-0.838c-0.551-0.599-0.838-1.389-0.813-2.202
				c-0.023-0.813,0.287-1.579,0.861-2.13c0.574-0.551,1.34-0.838,2.129-0.838c0.934,0,1.651,0.287,2.178,0.838
				c0.527,0.574,0.814,1.341,0.791,2.13c0.023,0.813-0.264,1.604-0.838,2.202C488.812,18.164,487.998,18.476,487.185,18.428z
				 M484.505,39.2V20.772c0-0.239,0.096-0.335,0.311-0.335h4.739c0.215,0,0.311,0.119,0.311,0.335V39.2
				c0,0.263-0.096,0.383-0.311,0.383h-4.691C484.624,39.583,484.505,39.439,484.505,39.2z"/>
		</g>
	</g>
</g>
</svg>
