<?xml version="1.0" encoding="utf-8"?>
<!-- Generator: Adobe Illustrator 16.0.0, SVG Export Plug-In . SVG Version: 6.00 Build 0)  -->
<!DOCTYPE svg PUBLIC "-//W3C//DTD SVG 1.1//EN" "http://www.w3.org/Graphics/SVG/1.1/DTD/svg11.dtd">
<svg version="1.1" id="圖層_1" xmlns="http://www.w3.org/2000/svg" xmlns:xlink="http://www.w3.org/1999/xlink" x="0px" y="0px"
	 width="71px" height="56px" viewBox="439.5 0 71 56" enable-background="new 439.5 0 71 56" xml:space="preserve">
<g>
	
		<linearGradient id="SVGID_1_" gradientUnits="userSpaceOnUse" x1="-146.0811" y1="30.9219" x2="-84.6732" y2="79.6676" gradientTransform="matrix(1 0 0 1 593.0195 -25.1992)">
		<stop  offset="0" style="stop-color:#9013FE"/>
		<stop  offset="1" style="stop-color:#6610F2"/>
	</linearGradient>
	<path fill="url(#SVGID_1_)" d="M447.615,7.318C447.481,3.51,450.449,0,454.458,0h41.087c4.01,0,6.977,3.511,6.844,7.318
		c-0.127,3.657,0.039,8.396,1.23,12.258c1.195,3.876,3.213,6.325,6.518,6.64v3.568c-3.305,0.313-5.32,2.764-6.518,6.639
		c-1.191,3.863-1.357,8.602-1.23,12.259c0.133,3.808-2.834,7.318-6.844,7.318h-41.087c-4.009,0-6.977-3.511-6.843-7.318
		c0.127-3.657-0.038-8.396-1.23-12.259c-1.196-3.875-3.219-6.324-6.521-6.639v-3.568c3.304-0.314,5.325-2.764,6.521-6.64
		C447.577,15.713,447.742,10.975,447.615,7.318z"/>
	
		<linearGradient id="SVGID_2_" gradientUnits="userSpaceOnUse" x1="-127.1963" y1="40.6162" x2="-113.4707" y2="63.8292" gradientTransform="matrix(1 0 0 1 593.0195 -25.1992)">
		<stop  offset="0" style="stop-color:#FFFFFF"/>
		<stop  offset="1" style="stop-color:#F1E5FC"/>
	</linearGradient>
	<path fill="url(#SVGID_2_)" stroke="#FFFFFF" d="M476.523,42.886c6.49,0,10.402-3.179,10.402-8.422
		c0-3.963-2.791-6.832-6.936-7.286v-0.165c3.045-0.495,5.436-3.323,5.436-6.481c0-4.5-3.553-7.431-8.967-7.431h-12.18v29.785
		H476.523z M469.016,16.878h6.304c3.424,0,5.37,1.527,5.37,4.293c0,2.952-2.264,4.604-6.364,4.604h-5.31V16.878L469.016,16.878z
		 M469.016,39.108v-9.805h6.261c4.481,0,6.809,1.651,6.809,4.871c0,3.221-2.262,4.934-6.533,4.934H469.016L469.016,39.108z"/>
</g>
</svg>
