<?xml version="1.0" encoding="utf-8"?>
<!-- Generator: Adobe Illustrator 16.0.0, SVG Export Plug-In . SVG Version: 6.00 Build 0)  -->
<!DOCTYPE svg PUBLIC "-//W3C//DTD SVG 1.1//EN" "http://www.w3.org/Graphics/SVG/1.1/DTD/svg11.dtd">
<svg version="1.1"
	 id="svg3476" xmlns:cc="http://creativecommons.org/ns#" xmlns:dc="http://purl.org/dc/elements/1.1/" xmlns:svg="http://www.w3.org/2000/svg" xmlns:sodipodi="http://sodipodi.sourceforge.net/DTD/sodipodi-0.dtd" xmlns:inkscape="http://www.inkscape.org/namespaces/inkscape" xmlns:rdf="http://www.w3.org/1999/02/22-rdf-syntax-ns#" inkscape:version="0.91 r13725" sodipodi:docname="CSS3.svg"
	 xmlns="http://www.w3.org/2000/svg" xmlns:xlink="http://www.w3.org/1999/xlink" x="0px" y="0px" width="40px" height="56px"
	 viewBox="125.094 176.8 40 56" enable-background="new 125.094 176.8 40 56" xml:space="preserve">
<sodipodi:namedview  inkscape:cx="181.367" pagecolor="#ffffff" showgrid="false" fit-margin-top="0" id="base" inkscape:cy="256" bordercolor="#666666" borderopacity="1.0" inkscape:zoom="0.35" fit-margin-left="0" fit-margin-bottom="0" fit-margin-right="0" inkscape:document-units="px" inkscape:window-height="704" inkscape:current-layer="layer1" inkscape:window-y="27" inkscape:window-x="0" inkscape:window-maximized="1" inkscape:pageopacity="0.0" inkscape:window-width="1366" inkscape:pageshadow="2">
	</sodipodi:namedview>
<g id="layer1" transform="translate(-193.633,-276.3622)" inkscape:label="Calque 1" inkscape:groupmode="layer">
	<g id="g3013" transform="translate(119,276.3622)">
		<polygon id="polygon2989" fill="#264DE4" points="239.563,187.805 235.949,228.296 219.702,232.8 203.5,228.302 199.89,187.805 		
			"/>
		<polygon id="polygon2991" fill="#2965F1" points="232.854,225.717 235.943,191.116 219.727,191.116 219.727,229.358 		"/>
		<polygon id="polygon2993" fill="#EBEBEB" points="208.166,206.136 208.612,211.103 219.727,211.103 219.727,206.136 		"/>
		<polygon id="polygon2995" fill="#EBEBEB" points="219.727,196.083 219.709,196.083 207.272,196.083 207.724,201.05 
			219.727,201.05 		"/>
		<polygon id="polygon2997" fill="#EBEBEB" points="219.727,224.203 219.727,219.035 219.705,219.041 214.173,217.548 
			213.82,213.586 211.132,213.586 208.834,213.586 209.53,221.385 219.704,224.209 		"/>
		<path id="path2999" inkscape:connector-curvature="0" d="M209.227,176.8h6.016v2.516h-3.5v2.516h3.5v2.516h-6.016V176.8z"/>
		<path id="path3001" inkscape:connector-curvature="0" d="M216.445,176.8h6.016v2.188h-3.5v0.438h3.5v5.031h-6.016v-2.297h3.5
			v-0.438h-3.5V176.8z"/>
		<path id="path3003" inkscape:connector-curvature="0" d="M223.664,176.8h6.016v2.188h-3.5v0.438h3.5v5.031h-6.016v-2.297h3.5
			v-0.438h-3.5V176.8z"/>
		<polygon id="polygon3005" fill="#FFFFFF" points="225.825,211.103 225.249,217.544 219.709,219.039 219.709,224.207 
			229.892,221.385 229.967,220.546 231.134,207.47 231.255,206.136 232.151,196.083 219.709,196.083 219.709,201.05 226.708,201.05 
			226.256,206.136 219.709,206.136 219.709,211.103 		"/>
	</g>
</g>
</svg>
