<?xml version="1.0" encoding="utf-8"?>
<!-- Generator: Adobe Illustrator 16.0.0, SVG Export Plug-In . SVG Version: 6.00 Build 0)  -->
<!DOCTYPE svg PUBLIC "-//W3C//DTD SVG 1.1//EN" "http://www.w3.org/Graphics/SVG/1.1/DTD/svg11.dtd">
<svg version="1.1" id="圖層_1" xmlns="http://www.w3.org/2000/svg" xmlns:xlink="http://www.w3.org/1999/xlink" x="0px" y="0px"
	 width="135px" height="56px" viewBox="407.5 0 135 56" enable-background="new 407.5 0 135 56" xml:space="preserve">
<g>
	<path fill="#31251C" d="M498.254,19.223c0.962,1.229,1.978,2.939,1.978,5.396c0,5.932-4.648,9.404-11.38,9.404
		c-1.711,0-3.261-0.213-4.223-0.48l-1.765,2.832l5.236,0.318c9.245,0.59,14.692,0.856,14.692,7.963
		c0,6.145-5.396,9.617-14.692,9.617c-9.671,0-13.358-2.459-13.358-6.68c0-2.404,1.069-3.685,2.939-5.451
		c-1.765-0.744-2.353-2.08-2.353-3.523c0-1.176,0.588-2.244,1.552-3.262c0.962-1.014,2.029-2.029,3.313-3.205
		c-2.618-1.281-4.596-4.062-4.596-8.016c0-6.145,4.062-10.363,12.234-10.363c2.298,0,3.688,0.211,4.917,0.533h10.42v4.541
		L498.254,19.223z M482.438,43.59c-0.695,0.854-1.39,1.762-1.39,2.832c0,2.135,2.725,2.777,6.466,2.777
		c3.1,0,7.319-0.217,7.319-3.098c0-1.713-2.029-1.818-4.597-1.98L482.438,43.59z M488.314,19.061c-2.939,0-5.129,1.443-5.129,4.918
		c0,2.617,1.442,4.434,4.971,4.434c2.99,0,5.021-1.762,5.021-4.543C493.178,20.719,491.36,19.061,488.314,19.061z"/>
	<path fill="#31251C" d="M505.677,41.623v-4.219l2.727-0.373c0.748-0.107,0.854-0.268,0.854-1.07V20.252
		c0-0.588-0.158-0.963-0.694-1.121l-2.885-1.018l0.588-4.326h11.062v22.174c0,0.855,0.052,0.963,0.855,1.07l2.725,0.373v4.219
		H505.677z M512.571,9.512c-3.047,0-4.81-1.764-4.81-4.811c0-3.043,1.763-4.701,4.81-4.701c3.099,0,4.862,1.658,4.862,4.701
		C517.434,7.748,515.67,9.512,512.571,9.512z"/>
	<path fill="#31251C" d="M542.037,39.551c-2.299,1.123-5.665,2.139-8.712,2.139c-6.357,0-8.762-2.563-8.762-8.604V19.088
		c0-0.32,0-0.535-0.429-0.535h-3.74v-4.756c4.703-0.535,6.572-2.887,7.16-8.711h5.077v7.59c0,0.373,0,0.533,0.428,0.533h7.533v5.344
		h-7.961v12.769c0,3.152,0.748,4.382,3.633,4.382c1.498,0,3.046-0.373,4.328-0.854L542.037,39.551z"/>
	<g>
		<path fill="#F42534" d="M462.865,25.529L438.434,1.1c-1.406-1.408-3.688-1.408-5.098,0l-5.071,5.074l6.435,6.436
			c1.496-0.506,3.211-0.166,4.403,1.025c1.198,1.199,1.534,2.928,1.017,4.43l6.202,6.203c1.501-0.518,3.232-0.184,4.431,1.016
			c1.676,1.676,1.676,4.389,0,6.063c-1.676,1.676-4.39,1.676-6.064,0c-1.26-1.262-1.571-3.111-0.935-4.662l-5.783-5.785
			l-0.001,15.223c0.408,0.201,0.794,0.472,1.135,0.812c1.675,1.674,1.675,4.387,0,6.063c-1.676,1.674-4.392,1.674-6.063,0
			c-1.675-1.679-1.675-4.392,0-6.063c0.414-0.414,0.894-0.728,1.403-0.937V20.635c-0.511-0.209-0.989-0.521-1.403-0.936
			c-1.269-1.27-1.573-3.131-0.924-4.689l-6.344-6.344l-16.753,16.75c-1.408,1.408-1.408,3.691,0,5.098l24.432,24.432
			c1.406,1.406,3.688,1.406,5.097,0l24.317-24.317C464.272,29.221,464.272,26.938,462.865,25.529z"/>
	</g>
</g>
</svg>
