<?xml version="1.0" encoding="utf-8"?>
<!-- Generator: Adobe Illustrator 16.0.0, SVG Export Plug-In . SVG Version: 6.00 Build 0)  -->
<!DOCTYPE svg PUBLIC "-//W3C//DTD SVG 1.1//EN" "http://www.w3.org/Graphics/SVG/1.1/DTD/svg11.dtd">
<svg version="1.1" id="圖層_1" xmlns="http://www.w3.org/2000/svg" xmlns:xlink="http://www.w3.org/1999/xlink" x="0px" y="0px"
	 width="171px" height="56px" viewBox="389.5 0 171 56" enable-background="new 389.5 0 171 56" xml:space="preserve">
<g>
	<path fill="#8C929D" d="M508.999,14.258h-3.693l0.015,27.497h14.944v-3.384h-11.256L508.999,14.258z M534.495,36.927
		c-1.196,1.244-2.851,1.943-4.576,1.932c-2.813,0-3.945-1.385-3.945-3.191c0-2.727,1.89-4.029,5.92-4.029
		c0.77,0,1.972,0.084,2.603,0.209L534.495,36.927L534.495,36.927z M530.673,20.261c-2.865-0.005-5.645,0.991-7.854,2.815
		l1.307,2.262c1.512-0.881,3.357-1.763,6.004-1.763c3.023,0,4.367,1.539,4.367,4.154v1.344c-0.588-0.127-1.805-0.211-2.561-0.211
		c-6.467,0-9.74,2.267-9.74,7.012c0,4.24,2.604,6.38,6.549,6.38c2.658,0,5.206-1.229,6.086-3.19l0.674,2.687h2.604V27.687
		c0-4.449-1.932-7.432-7.433-7.432L530.673,20.261z M550.024,38.987c-1.386,0-2.604-0.155-3.527-0.59V25.678
		c1.263-1.049,2.813-1.804,4.771-1.804c3.569,0,4.954,2.519,4.954,6.591c0,5.794-2.225,8.525-6.213,8.525 M551.548,20.264
		c-3.301,0-5.077,2.246-5.077,2.246v-3.551l-0.013-4.701h-3.61l0.012,26.827c1.807,0.77,4.281,1.176,6.971,1.176
		c6.886,0,10.201-4.408,10.201-12.007c0-6.004-3.066-9.992-8.48-9.992 M468.84,17.236c3.273,0,5.372,1.077,6.76,2.185l1.588-2.75
		c-2.164-1.896-5.075-2.918-8.18-2.918c-7.852,0-13.35,4.771-13.35,14.442c0,10.119,5.934,14.064,12.719,14.064
		c3.386,0,6.299-0.798,8.189-1.596l-0.078-10.811v-3.387h-10.075v3.387h6.438l0.076,8.205c-0.84,0.42-2.309,0.771-4.281,0.771
		c-5.458,0-9.108-3.431-9.108-10.663c0-7.347,3.778-10.915,9.318-10.915 M494.823,14.258h-3.611l0.012,4.616v15.951
		c0,4.449,1.933,7.432,7.433,7.432c0.746,0,1.491-0.066,2.225-0.199v-3.242c-0.555,0.086-1.114,0.127-1.678,0.127
		c-3.022,0-4.365-1.539-4.365-4.154V23.786h6.046v-3.023h-6.046L494.823,14.258z M482.053,41.755h3.61V20.764h-3.61V41.755z
		 M482.053,17.867h3.61v-3.612h-3.61V17.867z"/>
	<path fill="#E24329" d="M420.342,55.999l11.19-34.441h-22.38L420.342,55.999z"/>
	<path fill="#FC6D26" d="M420.342,55.999l-11.189-34.455h-15.687L420.342,55.999z"/>
	<path fill="#FCA326" d="M393.466,21.544l-3.384,10.469c-0.311,0.952,0.031,1.998,0.841,2.59l29.435,21.389L393.466,21.544z"/>
	<path fill="#E24329" d="M393.466,21.544h15.687l-6.74-20.743c-0.346-1.068-1.857-1.068-2.203,0L393.466,21.544z"/>
	<path fill="#FC6D26" d="M420.342,55.999l11.19-34.441h15.685L420.342,55.999z"/>
	<path fill="#FCA326" d="M447.217,21.544l3.386,10.469c0.311,0.952-0.03,1.998-0.843,2.59l-29.434,21.389L447.217,21.544z"/>
	<path fill="#E24329" d="M447.217,21.544h-15.685l6.739-20.743c0.346-1.068,1.856-1.068,2.203,0L447.217,21.544z"/>
</g>
</svg>
