<?xml version="1.0" encoding="utf-8"?>
<!-- Generator: Adobe Illustrator 16.0.0, SVG Export Plug-In . SVG Version: 6.00 Build 0)  -->
<!DOCTYPE svg PUBLIC "-//W3C//DTD SVG 1.1//EN" "http://www.w3.org/Graphics/SVG/1.1/DTD/svg11.dtd">
<svg version="1.1" id="圖層_1" xmlns="http://www.w3.org/2000/svg" xmlns:xlink="http://www.w3.org/1999/xlink" x="0px" y="0px"
	 width="40px" height="56px" viewBox="0 0 40 56" enable-background="new 0 0 40 56" xml:space="preserve">
<g>
	<path d="M3.855,0h2.517v2.494h2.319V0h2.516v7.547H8.691V5.031H6.394v2.516H3.855 M14.532,2.516h-2.222V0h6.968v2.516h-2.23v5.031
		h-2.516 M20.383,0h2.636l1.617,2.658L26.256,0h2.637v7.547h-2.516v-3.74l-1.762,2.712l-1.76-2.712v3.74h-2.474 M30.139,0h2.517
		v5.053h3.563v2.494h-6.08"/>
	<path fill="#E44D26" d="M3.77,51.516L0.16,11.003h39.68l-3.606,40.491L19.967,56"/>
	<path fill="#F16529" d="M20,52.555V14.328h16.22l-3.096,34.563"/>
	<path fill="#EBEBEB" d="M7.532,19.283H20v4.965h-7.021l0.461,5.086h6.563v4.955H8.89 M9.105,36.783h4.988l0.351,3.97L20,42.24
		v5.185L9.807,44.581"/>
	<path fill="#FFFFFF" d="M32.424,19.283H19.979v4.965h11.986 M31.518,29.334H19.979V34.3h6.125l-0.58,6.453l-5.545,1.487v5.162
		l10.172-2.821"/>
</g>
</svg>
