<?xml version="1.0" encoding="utf-8"?>
<!-- Generator: Adobe Illustrator 16.0.0, SVG Export Plug-In . SVG Version: 6.00 Build 0)  -->
<!DOCTYPE svg PUBLIC "-//W3C//DTD SVG 1.1//EN" "http://www.w3.org/Graphics/SVG/1.1/DTD/svg11.dtd">
<svg version="1.1" id="圖層_1" xmlns="http://www.w3.org/2000/svg" xmlns:xlink="http://www.w3.org/1999/xlink" x="0px" y="0px"
	 width="153px" height="56px" viewBox="398.5 0 153 56" enable-background="new 398.5 0 153 56" xml:space="preserve">
<g>
	<path fill="#131B28" d="M463.968,25.066L463.968,25.066l-0.976,3.458L463.968,25.066L463.968,25.066z"/>
	<path fill="#131B28" d="M468.986,32.574l-1.075-0.008L468.986,32.574z"/>
	<path fill="#131B28" d="M468.71,37.738L468.71,37.738l-6.441,0.023L468.71,37.738L468.71,37.738z"/>
	<path fill="#131B28" d="M470.061,32.581l-1.076-0.007L470.061,32.581z"/>
	<path fill="#131B28" d="M469.274,37.3l1.122-4.278L469.274,37.3L469.274,37.3L469.274,37.3z"/>
	<path fill="#131B28" d="M492.993,17.591l-2.091,9.828L492.993,17.591z"/>
	<path fill="#131B28" d="M487.62,17.591l-1.587,7.342L487.62,17.591L487.62,17.591z"/>
	<path fill="#131B28" d="M492.635,17.149h-4.47c-0.248,0-0.494,0.198-0.547,0.44l-1.587,7.343l-1.587,7.341
		c-0.052,0.242-0.299,0.441-0.547,0.441h-2.712h-0.452c-3.13,0-2.769-2.166-2.127-5.132c0.006-0.03,0.013-0.059,0.019-0.09
		l0.07-0.374c0.005-0.023,0.01-0.048,0.014-0.07l0.144-0.761l0.152-0.816c0.047-0.245,0.117-0.605,0.164-0.831l0.722-3.524
		l0.722-3.525c0.05-0.243-0.112-0.442-0.361-0.442h-4.588c-0.248,0-0.493,0.199-0.544,0.441l-0.986,4.681l-0.986,4.681
		c-0.001,0.001-0.001,0.004-0.002,0.007l-0.092,0.435c-1.136,5.188-0.835,10.134,5.342,10.291c0.101,0.002,0.179,0.004,0.179,0.004
		h9.694c0.249,0,0.493-0.199,0.545-0.442l2.091-9.826l2.09-9.828C493.044,17.349,492.883,17.149,492.635,17.149L492.635,17.149z"/>
	<path fill="#131B28" d="M510.468,32.768c0.248,0,0.411,0.197,0.361,0.44l-0.436,2.122"/>
	<path fill="#131B28" d="M509.961,37.452l0.434-2.123L509.961,37.452L509.961,37.452L509.961,37.452z"/>
	<path fill="#131B28" d="M509.417,37.898c0.001,0,0.001,0,0.002,0c-1.315,0.011-5.269,0.041-8.24,0.041
		C504.795,37.939,509.416,37.898,509.417,37.898L509.417,37.898z"/>
	<path fill="#131B28" d="M498.512,30.034c-0.003-0.231,0.262-0.634,0.509-0.634l-0.559-0.01
		C498.211,31.922,498.512,30.034,498.512,30.034L498.512,30.034z"/>
	<path fill="#131B28" d="M501.586,37.938c-0.029,0-0.058,0-0.086,0.002C501.529,37.938,501.558,37.938,501.586,37.938z"/>
	<path fill="#131B28" d="M510.468,32.768c0.248,0,0.411,0.197,0.361,0.44l-0.436,2.122l-0.07,0.346"/>
	<path fill="#131B28" d="M503.703,37.934h-0.02H503.703z"/>
	<path fill="#131B28" d="M502.605,37.938h-0.064H502.605z"/>
	<path fill="#131B28" d="M502.271,37.938c-0.035,0-0.069,0-0.104,0C502.2,37.938,502.235,37.938,502.271,37.938z"/>
	<path fill="#131B28" d="M501.93,37.938h-0.093H501.93z"/>
	<path fill="#131B28" d="M502.541,37.938c-0.09,0-0.181,0-0.271,0C502.36,37.938,502.451,37.938,502.541,37.938z"/>
	<path fill="#131B28" d="M503.685,37.934c-0.36,0.002-0.723,0.002-1.079,0.004C502.962,37.938,503.324,37.936,503.685,37.934z"/>
	<path fill="#131B28" d="M509.42,37.896L509.42,37.896c-0.964,0.01-3.345,0.026-5.719,0.035
		C506.074,37.925,508.455,37.906,509.42,37.896z"/>
	<path fill="#131B28" d="M509.961,37.453l0.363-1.777L509.961,37.453L509.961,37.453L509.961,37.453z"/>
	<path fill="#131B28" d="M502.165,37.938h-0.235H502.165z"/>
	<path fill="#131B28" d="M501.499,37.938h-0.319H501.499z"/>
	<path fill="#131B28" d="M501.837,37.938h-0.252H501.837z"/>
	<path fill="#131B28" d="M436.447,30.087l0.694-3.078l-0.793,3.519l-0.762,3.584l0.668-3.141
		C436.306,30.727,436.393,30.329,436.447,30.087L436.447,30.087z"/>
	<path fill="#131B28" d="M444.758,17.097h-4.909c-0.248,0-0.496,0.198-0.551,0.44l-0.466,2.055l-0.465,2.055
		c-0.055,0.242,0.104,0.44,0.352,0.44h4.946c0.249,0,0.495-0.198,0.549-0.44l0.45-2.055l0.45-2.054v-0.001
		C445.166,17.295,445.007,17.097,444.758,17.097L444.758,17.097z"/>
	<path fill="#131B28" d="M443.69,23.932L443.69,23.932l-1.44,6.66L443.69,23.932z"/>
	<path fill="#131B28" d="M429.429,46.002c0,0,2.475,0.032,4.048,0.032c-1.195,0-3.169-0.021-4.05-0.032
		C429.428,46.002,429.429,46.002,429.429,46.002L429.429,46.002z"/>
	<path fill="#131B28" d="M437.836,23.931l-0.695,3.078L437.836,23.931z"/>
	<path fill="#131B28" d="M443.335,23.49h-4.948c-0.248,0-0.496,0.199-0.551,0.44l-0.695,3.078l-0.694,3.079
		c-0.055,0.241-0.142,0.64-0.194,0.882l-0.667,3.143l-0.667,3.143c-0.052,0.242-0.158,0.633-0.238,0.868c0,0-0.924,2.751-2.478,2.72
		c-0.066-0.002-0.131-0.002-0.194-0.004c-0.753-0.016-1.345-0.023-1.345-0.023h-0.001c-0.248-0.004-0.497,0.188-0.555,0.431
		l-0.513,2.157l-0.512,2.154c-0.058,0.241,0.098,0.44,0.344,0.445c0.882,0.01,2.855,0.032,4.05,0.032c3.882,0,5.928-2.15,7.24-8.339
		l1.534-7.104l1.44-6.661C443.743,23.689,443.582,23.49,443.335,23.49L443.335,23.49z"/>
	<path fill="#131B28" d="M513.62,37.688c-0.248,0-0.409-0.199-0.356-0.441l3.723-17.435"/>
	<path fill="#131B28" d="M518.793,37.244l1.505-7.439L518.793,37.244z"/>
	<path fill="#131B28" d="M513.317,37.466c-0.03-0.12-0.014-0.419,0.041-0.661l1.766-8.275l-1.86,8.717
		c-0.053,0.242,0.108,0.441,0.356,0.441h0.452C513.824,37.688,513.348,37.588,513.317,37.466L513.317,37.466z"/>
	<path fill="#131B28" d="M518.499,37.588c-0.135,0.055-0.449,0.1-0.697,0.1h0.452c0.248,0,0.492-0.199,0.541-0.442l0.089-0.44
		C518.835,37.045,518.635,37.533,518.499,37.588L518.499,37.588z"/>
	<path fill="#131B28" d="M519.547,33.523l0.665-3.285c-0.001,0.003-0.001,0.007-0.001,0.008L519.547,33.523L519.547,33.523z"/>
	<path fill="#131B28" d="M534.233,20.979l0.204,0.848c0.058,0.242-0.1,0.439-0.348,0.439"/>
	<path fill="#131B28" d="M518.883,36.803l0.663-3.277L518.883,36.803z"/>
	<path fill="#131B28" d="M534.029,20.111l0.203,0.867L534.029,20.111z"/>
	<path fill="#131B28" d="M520.21,30.238c0.049-0.241,0.131-0.635,0.183-0.877l0.71-3.324l-0.804,3.768L520.21,30.238L520.21,30.238z
		"/>
	<path fill="#131B28" d="M517.047,19.525c-0.05,0.234-0.113,0.531-0.155,0.728l-1.767,8.274l1.861-8.716L517.047,19.525
		L517.047,19.525z"/>
	<path fill="#131B28" d="M534.438,21.826l-0.205-0.848l-0.203-0.867l-0.104-0.439c-0.401-1.562-1.582-2.463-4.143-2.463
		l-3.988-0.004l-3.673-0.005h-0.315h-3.816c-0.248,0-0.494,0.198-0.544,0.442l0,0l-0.184,0.862l-0.216,1.021l-0.06,0.286
		l-1.861,8.716l-1.766,8.275c-0.054,0.243-0.07,0.541-0.04,0.662c0.028,0.122,0.506,0.223,0.754,0.223h3.729
		c0.248,0,0.563-0.045,0.698-0.101c0.135-0.055,0.335-0.543,0.385-0.784l0.663-3.279l0.663-3.277c0-0.001,0.001-0.005,0.001-0.008
		l0.088-0.436l0.805-3.767l0.709-3.326c0.053-0.241,0.297-0.439,0.545-0.439l11.73-0.006
		C534.337,22.266,534.494,22.068,534.438,21.826L534.438,21.826z"/>
	<path fill="#131B28" d="M549.539,14.166c-0.249,0.002-0.654,0.004-0.903,0.004h-3.754c-0.249,0-0.567,0.168-0.707,0.372
		l-8.303,12.164c-0.14,0.205-0.3,0.176-0.355-0.066l-0.61-2.681c-0.056-0.242-0.305-0.439-0.553-0.439h-5.338
		c-0.248,0-0.396,0.195-0.326,0.434l2.392,8.379c0.067,0.239,0.073,0.631,0.012,0.871l-1.043,4.056
		c-0.062,0.241,0.091,0.438,0.34,0.438h5.275c0.248,0,0.502-0.195,0.563-0.438l1.043-4.056c0.062-0.24,0.234-0.601,0.385-0.798
		l13.479-17.891c0.149-0.198,0.068-0.359-0.18-0.357L549.539,14.166L549.539,14.166z"/>
	<path fill="#131B28" d="M507.132,24.66v-0.005c-0.031,0.269-0.28,0.467-0.527,0.467h-6.768c-0.234,0-0.353-0.159-0.318-0.355
		c0.002-0.005,0.002-0.011,0.007-0.016c0,0-0.002,0-0.005,0.002c0.001-0.008,0.001-0.015,0.005-0.022c0,0,0.013-0.048,0.03-0.115
		c0.646-1.719,1.963-2.847,4.438-2.847C506.777,21.769,507.321,23.13,507.132,24.66L507.132,24.66z M505.146,16.849
		c-8.686,0-10.744,5.272-11.898,10.595c-1.155,5.423-1.055,10.496,7.934,10.496h0.319c0.028-0.002,0.058-0.002,0.086-0.002h0.252
		h0.092h0.236c0.035,0,0.07,0,0.105,0c0.09,0,0.18,0,0.271,0h0.064c0.354,0,0.716-0.002,1.077-0.004h0.02
		c2.374-0.01,4.755-0.026,5.719-0.035c0.247-0.004,0.488-0.203,0.539-0.442l0.364-1.778l0.069-0.347l0.436-2.122
		c0.05-0.243-0.113-0.441-0.361-0.441h-8.081c-3.214,0-4.169-0.854-3.816-3.365h12.918l-0.001,0.002
		c0.004,0,0.007-0.002,0.009-0.002c0.206-0.004,0.395-0.145,0.47-0.334c0.015-0.034,0.026-0.072,0.031-0.111l-0.001,0.001
		C513.913,21.722,513.363,16.849,505.146,16.849L505.146,16.849z"/>
	<path fill="#131B28" d="M464.09,24.633l-0.122,0.433v0.001l-0.975,3.457l-0.975,3.457c-0.068,0.238-0.326,0.435-0.574,0.435h-5.163
		c-3.917,0-4.87-3.063-3.917-7.581c0.953-4.621,2.823-7.493,6.677-7.784C464.308,16.651,465.362,20.356,464.09,24.633L464.09,24.633
		z M467.631,32.146c0,0,2.434-5.909,2.987-9.324c0.754-4.569-1.535-11.196-10.372-11.196c-8.788,0-12.603,6.327-14.059,13.206
		c-1.456,6.929,0.452,13.005,9.188,12.955l6.894-0.026l6.442-0.021c0.248-0.004,0.502-0.199,0.565-0.439l1.123-4.279
		c0.062-0.24-0.089-0.438-0.337-0.439l-1.076-0.006l-1.075-0.008c-0.211,0-0.332-0.137-0.307-0.318
		C467.608,32.216,467.616,32.184,467.631,32.146L467.631,32.146z"/>
	<path fill="#131B28" d="M511.131,28.192c0,0.163-0.132,0.296-0.296,0.296s-0.296-0.133-0.296-0.296
		c0-0.164,0.132-0.296,0.296-0.296S511.131,28.028,511.131,28.192z"/>
	<path fill="#0868AC" d="M400.531,20.507c-2.426,3.487-2.124,8.025-0.271,11.729c0.044,0.09,0.09,0.178,0.136,0.265
		c0.029,0.056,0.057,0.112,0.086,0.167c0.017,0.033,0.037,0.064,0.054,0.096c0.032,0.061,0.063,0.116,0.097,0.174
		c0.057,0.102,0.116,0.203,0.177,0.304c0.034,0.056,0.066,0.11,0.101,0.166c0.066,0.108,0.135,0.215,0.205,0.321
		c0.029,0.045,0.058,0.09,0.087,0.135c0.097,0.145,0.196,0.289,0.297,0.43c0.002,0.003,0.005,0.008,0.009,0.012
		c0.016,0.022,0.034,0.045,0.05,0.066c0.088,0.122,0.179,0.242,0.271,0.361c0.034,0.043,0.068,0.086,0.103,0.129
		c0.082,0.104,0.166,0.207,0.25,0.309c0.032,0.038,0.064,0.076,0.095,0.114c0.114,0.135,0.23,0.269,0.349,0.399
		c0.002,0,0.005,0.004,0.007,0.006c0.005,0.006,0.009,0.01,0.013,0.016c0.116,0.126,0.235,0.25,0.355,0.374
		c0.037,0.038,0.075,0.075,0.113,0.114c0.093,0.094,0.188,0.187,0.283,0.277c0.039,0.036,0.078,0.074,0.116,0.109
		c0.127,0.12,0.256,0.238,0.388,0.354c0.002,0.002,0.004,0.004,0.006,0.006c0.022,0.021,0.045,0.037,0.067,0.058
		c0.116,0.101,0.234,0.2,0.353,0.298c0.048,0.039,0.098,0.077,0.146,0.116c0.097,0.077,0.195,0.153,0.294,0.229
		c0.052,0.039,0.104,0.08,0.157,0.119c0.109,0.079,0.219,0.159,0.33,0.236c0.041,0.029,0.08,0.059,0.12,0.085
		c0.011,0.008,0.021,0.017,0.033,0.022c0.105,0.072,0.212,0.144,0.32,0.213c0.046,0.031,0.092,0.063,0.139,0.093
		c0.165,0.104,0.333,0.207,0.501,0.307c0.045,0.026,0.092,0.052,0.139,0.078c0.125,0.072,0.25,0.144,0.376,0.211
		c0.069,0.037,0.139,0.072,0.208,0.106c0.09,0.048,0.178,0.096,0.269,0.141c0.021,0.012,0.042,0.02,0.063,0.029
		c0.037,0.019,0.074,0.035,0.11,0.055c0.142,0.066,0.284,0.135,0.427,0.197c0.03,0.014,0.06,0.025,0.09,0.039
		c0.165,0.072,0.331,0.143,0.498,0.207c0.04,0.018,0.081,0.033,0.121,0.049c0.155,0.061,0.312,0.119,0.47,0.175
		c0.02,0.006,0.04,0.013,0.059,0.021c0.173,0.061,0.348,0.117,0.524,0.172c0.042,0.013,0.084,0.025,0.126,0.037
		c0.179,0.055,0.355,0.119,0.541,0.152c11.733,2.141,15.142-7.052,15.142-7.052c-2.863,3.729-7.944,4.714-12.758,3.618
		c-0.182-0.041-0.359-0.1-0.537-0.15c-0.045-0.014-0.089-0.027-0.134-0.041c-0.174-0.053-0.347-0.109-0.518-0.168
		c-0.023-0.009-0.047-0.018-0.071-0.025c-0.153-0.055-0.305-0.11-0.456-0.168c-0.043-0.019-0.085-0.035-0.128-0.051
		c-0.166-0.066-0.33-0.135-0.493-0.205c-0.033-0.015-0.066-0.029-0.098-0.043c-0.14-0.063-0.278-0.129-0.416-0.193
		c-0.04-0.02-0.079-0.038-0.12-0.059c-0.108-0.053-0.214-0.109-0.321-0.164c-0.071-0.037-0.144-0.072-0.214-0.111
		c-0.13-0.069-0.258-0.143-0.386-0.217c-0.043-0.023-0.086-0.047-0.13-0.071c-0.169-0.101-0.337-0.202-0.501-0.308
		c-0.045-0.029-0.09-0.062-0.135-0.09c-0.12-0.078-0.239-0.156-0.357-0.238c-0.039-0.025-0.077-0.055-0.115-0.08
		c-0.114-0.08-0.226-0.162-0.338-0.244c-0.05-0.037-0.101-0.075-0.149-0.113c-0.102-0.078-0.204-0.156-0.305-0.236
		c-0.045-0.037-0.091-0.072-0.136-0.108c-0.128-0.104-0.254-0.212-0.379-0.32c-0.013-0.011-0.027-0.022-0.042-0.034
		c-0.135-0.119-0.268-0.24-0.399-0.363c-0.038-0.035-0.075-0.07-0.112-0.106c-0.097-0.093-0.192-0.187-0.286-0.28
		c-0.038-0.037-0.076-0.074-0.112-0.113c-0.119-0.121-0.237-0.246-0.352-0.371c-0.006-0.006-0.012-0.012-0.018-0.019
		c-0.121-0.134-0.24-0.269-0.356-0.405c-0.031-0.037-0.062-0.074-0.093-0.11c-0.087-0.104-0.173-0.211-0.257-0.317
		c-0.031-0.037-0.063-0.078-0.094-0.117c-0.101-0.131-0.2-0.262-0.296-0.395c-2.673-3.646-3.633-8.675-1.497-12.804"/>
	<path fill="#0868AC" d="M408.063,17.569c-1.754,2.525-1.659,5.905-0.291,8.576c0.229,0.447,0.487,0.882,0.776,1.295
		c0.263,0.377,0.554,0.825,0.903,1.128c0.126,0.14,0.259,0.274,0.394,0.408c0.034,0.035,0.068,0.067,0.104,0.104
		c0.131,0.127,0.264,0.252,0.402,0.374c0.005,0.004,0.011,0.01,0.016,0.015c0.001,0.002,0.003,0.002,0.004,0.004
		c0.152,0.133,0.31,0.262,0.47,0.389c0.036,0.027,0.071,0.055,0.106,0.082c0.161,0.123,0.324,0.244,0.492,0.359
		c0.005,0.004,0.009,0.008,0.014,0.01c0.074,0.053,0.149,0.1,0.224,0.148c0.036,0.023,0.07,0.048,0.106,0.07
		c0.12,0.076,0.241,0.15,0.364,0.223c0.018,0.012,0.034,0.021,0.052,0.03c0.106,0.062,0.214,0.12,0.321,0.18
		c0.038,0.021,0.076,0.04,0.115,0.06c0.075,0.039,0.149,0.08,0.225,0.117c0.011,0.006,0.023,0.01,0.034,0.017
		c0.155,0.075,0.311,0.149,0.47,0.219c0.034,0.015,0.069,0.028,0.104,0.042c0.127,0.055,0.255,0.107,0.385,0.156
		c0.055,0.021,0.11,0.041,0.165,0.061c0.118,0.045,0.235,0.084,0.353,0.124c0.055,0.017,0.107,0.034,0.161,0.052
		c0.168,0.051,0.335,0.117,0.511,0.146c9.06,1.501,11.151-5.475,11.151-5.475c-1.885,2.715-5.537,4.012-9.433,3
		c-0.173-0.047-0.344-0.096-0.513-0.148c-0.052-0.016-0.103-0.031-0.154-0.05c-0.121-0.039-0.241-0.081-0.359-0.123
		c-0.055-0.021-0.109-0.04-0.162-0.062c-0.13-0.051-0.259-0.103-0.387-0.156c-0.035-0.014-0.07-0.027-0.104-0.043
		c-0.159-0.069-0.316-0.144-0.472-0.221c-0.08-0.039-0.159-0.08-0.237-0.119c-0.045-0.024-0.091-0.049-0.137-0.072
		c-0.101-0.054-0.201-0.111-0.3-0.169c-0.023-0.014-0.048-0.026-0.072-0.041c-0.123-0.071-0.244-0.145-0.363-0.221
		c-0.037-0.024-0.072-0.05-0.109-0.073c-0.079-0.052-0.158-0.104-0.235-0.156c-0.167-0.115-0.33-0.235-0.49-0.357
		c-0.038-0.029-0.074-0.059-0.11-0.087c-1.706-1.347-3.058-3.188-3.7-5.273c-0.674-2.164-0.528-4.593,0.639-6.565"/>
	<path fill="#0868AC" d="M414.397,15.374c-1.034,1.523-1.136,3.413-0.418,5.095c0.757,1.784,2.308,3.185,4.118,3.848
		c0.074,0.028,0.149,0.053,0.225,0.079c0.033,0.01,0.066,0.021,0.1,0.03c0.106,0.034,0.212,0.073,0.322,0.094
		c5.003,0.967,6.359-2.567,6.721-3.087c-1.188,1.711-3.186,2.122-5.637,1.526c-0.193-0.046-0.407-0.116-0.593-0.183
		c-0.239-0.086-0.475-0.183-0.704-0.292c-0.435-0.209-0.85-0.463-1.234-0.754c-2.193-1.664-3.556-4.838-2.125-7.424"/>
	<path fill="#0868AC" d="M470.739,45.023l-1.442,3.283h-1.592l0.13-2.982l-1.172,2.982h-1.541l-0.041-3.283l0.17-0.811h1.092
		l-0.21,3.243l1.212-3.243h1.521l-0.11,3.283l1.202-3.283h0.951L470.739,45.023z"/>
	<path fill="#0868AC" d="M473.251,45.997c0.14-0.642,0.1-0.763-0.23-0.763h-0.5l-0.321,1.502l-0.49,1.572h-0.932l0.761-3.563
		l0.11-0.521h0.851l0.11,0.239c0,0,0.491-0.29,0.971-0.29c1.021,0,0.942,0.771,0.721,1.823H473.251L473.251,45.997z"/>
	<path fill="#0868AC" d="M476.275,43.702c-0.41,0-0.67-0.119-0.571-0.62c0.11-0.501,0.431-0.621,0.831-0.621
		c0.401,0,0.67,0.12,0.561,0.621C476.996,43.572,476.676,43.702,476.275,43.702L476.275,43.702z M475.835,48.309h-0.922l0.181-1.602
		l0.32-1.48l-0.641-0.143l0.181-0.87h1.751L475.835,48.309L475.835,48.309z"/>
	<path fill="#0868AC" d="M479.83,45.082l-1.151,0.143l-0.33,1.562c-0.091,0.431-0.091,0.551,0.291,0.551h0.771l-0.161,0.821
		c0,0-0.7,0.21-1.001,0.21c-1.181,0-1.171-0.651-0.961-1.623l0.321-1.531l-0.642-0.14l0.19-0.871h0.671l0.38-1.032h0.911
		l-0.221,1.032h1.121L479.83,45.082L479.83,45.082z"/>
	<path fill="#0868AC" d="M482.223,45.135c-0.54,0-0.821,0.28-0.932,0.781l1.542-0.13C482.903,45.445,482.833,45.135,482.223,45.135
		L482.223,45.135z M481.143,46.656c-0.071,0.5,0.119,0.671,0.76,0.671h1.612l-0.16,0.761c0,0-0.972,0.271-1.692,0.271
		c-1.792,0-1.812-1.012-1.582-2.094c0.23-1.062,0.642-2.111,2.373-2.111c1.672,0,1.753,1.012,1.342,2.503L481.143,46.656
		L481.143,46.656z"/>
	<path fill="#0868AC" d="M487.468,48.309h-0.92l0.181-1.603l0.65-3.044l-0.642-0.15l0.189-0.871h1.752L487.468,48.309
		L487.468,48.309z"/>
	<path fill="#0868AC" d="M490.795,45.135c-0.541,0-0.82,0.28-0.932,0.781l1.542-0.13C491.476,45.445,491.406,45.135,490.795,45.135
		L490.795,45.135z M489.714,46.656c-0.069,0.5,0.12,0.671,0.76,0.671h1.612l-0.16,0.761c0,0-0.972,0.271-1.691,0.271
		c-1.792,0-1.813-1.012-1.582-2.094c0.229-1.062,0.641-2.111,2.373-2.111c1.672,0,1.752,1.012,1.342,2.503L489.714,46.656
		L489.714,46.656z"/>
	<path fill="#0868AC" d="M496.591,45.186c0,0-1.171,0.01-1.491,0.01c-0.681,0-0.751,0.209-0.801,0.43l-0.041,0.201l2.163,0.16
		c0,0,0.01,0.689-0.08,1.08c-0.13,0.652-0.801,1.313-2.013,1.313c-0.602,0-1.572-0.229-1.572-0.229l0.17-0.791h1.493
		c0.661,0,0.751-0.182,0.792-0.361l0.05-0.26l-2.123-0.16c0,0-0.08-0.531,0.029-1.063c0.161-0.721,0.821-1.342,2.033-1.342
		c0.601,0,1.572,0.221,1.572,0.221L496.591,45.186L496.591,45.186z"/>
	<path fill="#0868AC" d="M500.617,45.186c0,0-1.171,0.01-1.492,0.01c-0.681,0-0.751,0.209-0.801,0.43l-0.041,0.201l2.164,0.16
		c0,0,0.01,0.689-0.08,1.08c-0.13,0.652-0.801,1.313-2.014,1.313c-0.601,0-1.571-0.229-1.571-0.229l0.17-0.791h1.492
		c0.661,0,0.751-0.182,0.792-0.361l0.05-0.26l-2.123-0.16c0,0-0.081-0.531,0.03-1.063c0.161-0.721,0.82-1.342,2.032-1.342
		c0.601,0,1.572,0.221,1.572,0.221L500.617,45.186L500.617,45.186z"/>
	<path fill="#0868AC" d="M501.877,48.96h-0.8l0.03-0.603c-0.291-0.02-0.441-0.229-0.371-0.58c0.109-0.5,0.42-0.621,0.831-0.621
		c0.399,0,0.67,0.121,0.561,0.621L501.877,48.96L501.877,48.96z"/>
	<path fill="#0868AC" d="M507.234,45.227c-0.602,0-0.812,0.358-0.951,1.021c-0.141,0.662-0.101,1.051,0.5,1.051h0.831l0.461-2.071
		H507.234L507.234,45.227z M508.605,47.777l-0.11,0.531l-0.84-0.011l-0.121-0.26c0,0-0.741,0.319-1.241,0.319
		c-1.282,0-1.342-1.051-1.112-2.112c0.23-1.081,0.731-2.103,2.003-2.103c0.46,0,1.082,0.229,1.082,0.229l0.511-1.731h0.921
		L508.605,47.777L508.605,47.777z"/>
	<path fill="#0868AC" d="M511.92,45.186c-0.781,0-1.032,0.438-1.172,1.08c-0.129,0.65-0.069,1.092,0.702,1.092
		c0.801,0,1.042-0.43,1.181-1.092C512.771,45.645,512.73,45.186,511.92,45.186L511.92,45.186z M511.24,48.368
		c-1.653,0-1.783-1.031-1.563-2.103c0.231-1.072,0.813-2.094,2.464-2.094c1.642,0,1.792,1.021,1.562,2.094
		C513.472,47.357,512.892,48.368,511.24,48.368z"/>
	<path fill="#0868AC" d="M520.612,48.309l0.181-1.582l0.09-0.451c0.131-0.601,0.211-1.041-0.421-1.041h-0.49
		c0.021,0.312-0.04,0.66-0.12,1.031l-0.431,2.043h-0.931l0.18-1.582l0.09-0.451c0.13-0.601,0.21-1.041-0.42-1.041h-0.4l-0.661,3.074
		h-1.072l0.872-4.096h0.841l0.13,0.25c0,0,0.571-0.301,1.032-0.301c0.351,0,0.611,0.16,0.701,0.359
		c0.2-0.109,0.771-0.359,1.182-0.359c1.281,0,1.242,1.041,1.011,2.104l-0.43,2.043H520.612L520.612,48.309z"/>
	<path fill="#0868AC" d="M524.869,45.186c-0.782,0-1.032,0.438-1.172,1.08c-0.13,0.65-0.07,1.092,0.701,1.092
		c0.801,0,1.041-0.43,1.182-1.092C525.719,45.645,525.679,45.186,524.869,45.186z M524.188,48.368c-1.652,0-1.781-1.031-1.563-2.103
		c0.23-1.072,0.811-2.094,2.464-2.094c1.642,0,1.792,1.021,1.563,2.094C526.42,47.357,525.84,48.368,524.188,48.368z"/>
	<path fill="#0868AC" d="M529.433,45.997c0.142-0.642,0.102-0.763-0.229-0.763h-0.501l-0.321,1.502l-0.491,1.572h-0.931l0.761-3.563
		l0.111-0.521h0.851l0.109,0.239c0,0,0.491-0.29,0.973-0.29c1.021,0,0.94,0.771,0.721,1.823H529.433L529.433,45.997z"/>
	<path fill="#0868AC" d="M533.02,45.135c-0.541,0-0.82,0.28-0.931,0.781l1.541-0.13C533.7,45.445,533.63,45.135,533.02,45.135
		L533.02,45.135z M531.938,46.656c-0.069,0.5,0.12,0.671,0.761,0.671h1.611l-0.159,0.761c0,0-0.972,0.271-1.692,0.271
		c-1.793,0-1.813-1.012-1.583-2.094c0.23-1.062,0.642-2.111,2.374-2.111c1.672,0,1.752,1.012,1.341,2.503L531.938,46.656
		L531.938,46.656z"/>
	<path fill="#0868AC" d="M535.49,48.369c-0.42,0-0.681-0.12-0.57-0.61c0.1-0.503,0.41-0.62,0.831-0.62c0.39,0,0.66,0.117,0.561,0.62
		C536.201,48.238,535.881,48.369,535.49,48.369z"/>
</g>
</svg>
