<?xml version="1.0" encoding="utf-8"?>
<!-- Generator: Adobe Illustrator 16.0.0, SVG Export Plug-In . SVG Version: 6.00 Build 0)  -->
<!DOCTYPE svg PUBLIC "-//W3C//DTD SVG 1.1//EN" "http://www.w3.org/Graphics/SVG/1.1/DTD/svg11.dtd">
<svg version="1.1" id="圖層_1" xmlns="http://www.w3.org/2000/svg" xmlns:xlink="http://www.w3.org/1999/xlink" x="0px" y="0px"
	 width="56px" height="56px" viewBox="447 0 56 56" enable-background="new 447 0 56 56" xml:space="preserve">
<g>
	<rect x="447" fill="#F7DF1E" width="56" height="56"/>
	<path d="M484.617,43.75c1.128,1.842,2.596,3.195,5.191,3.195c2.181,0,3.574-1.09,3.574-2.596c0-1.805-1.432-2.443-3.832-3.492
		l-1.314-0.565c-3.799-1.618-6.32-3.646-6.32-7.929c0-3.946,3.008-6.952,7.707-6.952c3.346,0,5.751,1.165,7.484,4.213l-4.098,2.632
		c-0.902-1.618-1.875-2.255-3.388-2.255c-1.542,0-2.519,0.979-2.519,2.255c0,1.579,0.979,2.217,3.236,3.194l1.315,0.563
		c4.471,1.917,6.995,3.872,6.995,8.267c0,4.738-3.723,7.334-8.721,7.334c-4.887,0-8.043-2.328-9.588-5.381L484.617,43.75z
		 M466.028,44.206c0.827,1.467,1.579,2.706,3.387,2.706c1.729,0,2.819-0.676,2.819-3.307V25.713h5.263v17.964
		c0,5.449-3.195,7.929-7.858,7.929c-4.213,0-6.653-2.18-7.894-4.807L466.028,44.206z"/>
</g>
</svg>
