<?xml version="1.0" encoding="utf-8"?>
<!-- Generator: Adobe Illustrator 16.0.0, SVG Export Plug-In . SVG Version: 6.00 Build 0)  -->
<!DOCTYPE svg PUBLIC "-//W3C//DTD SVG 1.1//EN" "http://www.w3.org/Graphics/SVG/1.1/DTD/svg11.dtd">
<svg version="1.1" id="圖層_1" xmlns="http://www.w3.org/2000/svg" xmlns:xlink="http://www.w3.org/1999/xlink" x="0px" y="0px"
	 width="55.854px" height="56px" viewBox="401.073 94.5 55.854 56" enable-background="new 401.073 94.5 55.854 56"
	 xml:space="preserve">
<title>lf_Logo</title>
<desc>Created with Sketch.</desc>
<linearGradient id="SVGID_1_" gradientUnits="userSpaceOnUse" x1="399.293" y1="141.9082" x2="452.4796" y2="107.1573">
	<stop  offset="0" style="stop-color:#2BEAED"/>
	<stop  offset="1" style="stop-color:#0FCCCE"/>
</linearGradient>
<path fill="url(#SVGID_1_)" d="M452.391,94.5h-46.782c-2.505,0-4.536,2.031-4.536,4.536v46.929c0,2.505,2.031,4.535,4.536,4.535
	h46.782c2.506,0,4.536-2.03,4.536-4.535V99.036C456.927,96.531,454.896,94.5,452.391,94.5z M445.997,108.709
	c-0.226,1.534-1.651,2.595-3.184,2.368c-2.714-0.402-6.779,3.824-11.331,12.513c-5.811,11.094-11.219,16.379-16.913,15.957
	c-1.544-0.114-2.703-1.461-2.589-3.007c0.114-1.547,1.458-2.709,3.003-2.595c2.812,0.208,6.942-4.197,11.534-12.965
	c5.848-11.164,11.33-16.317,17.117-15.46C445.166,105.747,446.223,107.175,445.997,108.709z"/>
</svg>
