<?xml version="1.0" encoding="utf-8"?>
<!-- Generator: Adobe Illustrator 16.0.0, SVG Export Plug-In . SVG Version: 6.00 Build 0)  -->
<!DOCTYPE svg PUBLIC "-//W3C//DTD SVG 1.1//EN" "http://www.w3.org/Graphics/SVG/1.1/DTD/svg11.dtd">
<svg version="1.1" id="圖層_1" xmlns="http://www.w3.org/2000/svg" xmlns:xlink="http://www.w3.org/1999/xlink" x="0px" y="0px"
	 width="58px" height="56px" viewBox="446 0 58 56" enable-background="new 446 0 58 56" xml:space="preserve">
<g id="Layer_2_1_">
	<g id="Surfaces">
		<g id="Photo_Surface">
			<g id="Outline_no_shadow">
				<path fill="#001E36" d="M456.454,0h37.095c5.623,0,10.17,4.547,10.17,10.171v35.658c0,5.623-4.547,10.171-10.17,10.171h-37.095
					c-5.625,0-10.172-4.548-10.172-10.171V10.171C446.282,4.547,450.829,0,456.454,0z"/>
			</g>
		</g>
	</g>
	<g id="Outlined_Mnemonics_Logos">
		<g id="Ps">
			<path fill="#31A8FF" d="M459.206,39.272V14.647c0-0.168,0.072-0.264,0.238-0.264c0.407,0,0.791,0,1.341-0.023
				c0.574-0.024,1.173-0.024,1.818-0.048c0.646-0.024,1.341-0.024,2.082-0.048c0.743-0.024,1.46-0.024,2.179-0.024
				c1.962,0,3.59,0.239,4.93,0.742c1.197,0.407,2.298,1.077,3.207,1.962c0.767,0.767,1.363,1.699,1.746,2.729
				c0.359,1.005,0.553,2.034,0.553,3.111c0,2.058-0.48,3.757-1.438,5.098c-0.957,1.34-2.296,2.345-3.853,2.919
				c-1.627,0.599-3.422,0.813-5.386,0.813c-0.573,0-0.956,0-1.194-0.023c-0.24-0.023-0.575-0.023-1.029-0.023v7.683
				c0.023,0.168-0.096,0.312-0.264,0.335c-0.023,0-0.049,0-0.097,0h-4.547C459.301,39.583,459.206,39.487,459.206,39.272z
				 M464.422,19.002v8.041c0.335,0.023,0.646,0.047,0.933,0.047h1.269c0.935,0,1.867-0.143,2.752-0.43
				c0.768-0.216,1.438-0.67,1.964-1.269c0.502-0.599,0.741-1.412,0.741-2.465c0.023-0.742-0.168-1.483-0.551-2.13
				c-0.406-0.623-0.979-1.102-1.676-1.364c-0.885-0.359-1.842-0.503-2.823-0.479c-0.622,0-1.173,0-1.628,0.023
				C464.924,18.954,464.59,18.978,464.422,19.002L464.422,19.002z"/>
			<path fill="#31A8FF" d="M492.23,25.583c-0.719-0.383-1.484-0.646-2.297-0.813c-0.887-0.191-1.771-0.312-2.682-0.312
				c-0.479-0.023-0.98,0.048-1.436,0.168c-0.311,0.071-0.574,0.239-0.742,0.479c-0.119,0.191-0.191,0.431-0.191,0.646
				c0,0.216,0.096,0.432,0.24,0.623c0.215,0.263,0.502,0.479,0.813,0.646c0.551,0.287,1.125,0.551,1.699,0.79
				c1.293,0.431,2.537,1.029,3.686,1.747c0.791,0.503,1.438,1.173,1.891,1.986c0.385,0.766,0.574,1.604,0.553,2.465
				c0.021,1.125-0.313,2.25-0.936,3.183c-0.67,0.959-1.604,1.699-2.68,2.131c-1.172,0.502-2.609,0.767-4.332,0.767
				c-1.1,0-2.178-0.097-3.254-0.312c-0.838-0.145-1.676-0.408-2.441-0.767c-0.168-0.097-0.287-0.265-0.264-0.455v-4.164
				c0-0.071,0.023-0.167,0.096-0.216c0.072-0.048,0.146-0.023,0.217,0.023c0.934,0.552,1.916,0.935,2.969,1.174
				c0.908,0.238,1.865,0.359,2.824,0.359c0.906,0,1.555-0.121,1.984-0.336c0.383-0.168,0.646-0.574,0.646-1.006
				c0-0.335-0.191-0.646-0.574-0.957c-0.383-0.313-1.172-0.67-2.344-1.125c-1.223-0.431-2.348-1.005-3.398-1.723
				c-0.742-0.526-1.365-1.221-1.818-2.034c-0.385-0.766-0.576-1.604-0.551-2.441c0-1.029,0.287-2.011,0.813-2.896
				c0.6-0.957,1.484-1.724,2.514-2.202c1.125-0.574,2.537-0.838,4.236-0.838c0.98,0,1.984,0.072,2.967,0.216
				c0.719,0.096,1.412,0.287,2.059,0.551c0.098,0.023,0.191,0.119,0.238,0.216c0.023,0.096,0.049,0.191,0.049,0.287v3.9
				c0,0.096-0.049,0.191-0.121,0.239C492.445,25.631,492.326,25.631,492.23,25.583z"/>
		</g>
	</g>
</g>
</svg>
