<?xml version="1.0" encoding="utf-8"?>
<!-- Generator: Adobe Illustrator 16.0.0, SVG Export Plug-In . SVG Version: 6.00 Build 0)  -->
<!DOCTYPE svg PUBLIC "-//W3C//DTD SVG 1.1//EN" "http://www.w3.org/Graphics/SVG/1.1/DTD/svg11.dtd">
<svg version="1.1" id="圖層_1" xmlns="http://www.w3.org/2000/svg" xmlns:xlink="http://www.w3.org/1999/xlink" x="0px" y="0px"
	 width="75px" height="56px" viewBox="437.5 0 75 56" enable-background="new 437.5 0 75 56" xml:space="preserve">
<path fill="#CD6799" d="M501.966,32.192c-2.605,0.014-4.869,0.641-6.766,1.567c-0.695-1.378-1.392-2.604-1.515-3.506
	c-0.136-1.05-0.3-1.689-0.136-2.944c0.162-1.255,0.899-3.042,0.887-3.179c-0.014-0.136-0.164-0.777-1.664-0.791
	s-2.797,0.287-2.947,0.683c-0.148,0.396-0.436,1.295-0.627,2.223c-0.259,1.364-3,6.232-4.568,8.783
	c-0.506-0.996-0.94-1.867-1.036-2.563c-0.138-1.051-0.301-1.69-0.138-2.946c0.164-1.253,0.9-3.041,0.888-3.177
	c-0.015-0.137-0.164-0.777-1.664-0.791s-2.796,0.286-2.946,0.682c-0.149,0.396-0.313,1.323-0.627,2.224
	c-0.313,0.898-3.955,9.029-4.91,11.129c-0.491,1.077-0.913,1.937-1.214,2.522l0,0c0,0-0.014,0.041-0.055,0.108
	c-0.26,0.505-0.409,0.776-0.409,0.776s0,0,0,0.015c-0.204,0.368-0.423,0.709-0.532,0.709c-0.082,0-0.231-0.981,0.027-2.317
	c0.546-2.824,1.842-7.215,1.828-7.365c0-0.082,0.245-0.846-0.847-1.241c-1.063-0.396-1.444,0.26-1.541,0.26
	c-0.096,0-0.164,0.231-0.164,0.231s1.188-4.938-2.264-4.938c-2.155,0-5.129,2.359-6.602,4.487c-0.929,0.505-2.905,1.582-5.021,2.74
	c-0.805,0.451-1.637,0.9-2.414,1.324c-0.055-0.056-0.108-0.123-0.164-0.179c-4.173-4.46-11.893-7.61-11.564-13.597
	c0.122-2.183,0.872-7.911,14.824-14.867c11.484-5.66,20.623-4.092,22.205-0.613c2.265,4.965-4.895,14.185-16.762,15.521
	c-4.528,0.504-6.901-1.241-7.501-1.896c-0.628-0.682-0.723-0.723-0.955-0.586c-0.382,0.204-0.137,0.818,0,1.173
	c0.354,0.928,1.814,2.564,4.283,3.369c2.182,0.709,7.487,1.104,13.912-1.378c7.187-2.782,12.806-10.516,11.156-16.994
	c-1.65-6.574-12.562-8.743-22.887-5.074c-6.138,2.182-12.793,5.62-17.581,10.093c-5.688,5.32-6.587,9.943-6.22,11.88
	c1.323,6.875,10.803,11.347,14.594,14.662c-0.189,0.109-0.367,0.205-0.518,0.287c-1.896,0.94-9.125,4.719-10.926,8.715
	c-2.045,4.527,0.328,7.773,1.896,8.211c4.869,1.352,9.875-1.077,12.563-5.088c2.687-4.01,2.359-9.221,1.117-11.606
	c-0.014-0.026-0.026-0.054-0.054-0.081c0.491-0.287,0.995-0.588,1.486-0.873c0.968-0.572,1.923-1.104,2.741-1.541
	c-0.464,1.268-0.806,2.782-0.969,4.965c-0.204,2.563,0.846,5.892,2.225,7.201c0.612,0.572,1.336,0.586,1.8,0.586
	c1.609,0,2.332-1.336,3.137-2.918c0.982-1.938,1.868-4.188,1.868-4.188s-1.104,6.084,1.896,6.084c1.091,0,2.194-1.419,2.688-2.142
	c0,0.014,0,0.014,0,0.014s0.027-0.041,0.081-0.137c0.109-0.178,0.178-0.287,0.178-0.287s0-0.014,0-0.026
	c0.438-0.765,1.418-2.496,2.877-5.374c1.882-3.71,3.695-8.348,3.695-8.348s0.164,1.133,0.724,3.015
	c0.327,1.104,1.01,2.317,1.556,3.491c-0.438,0.613-0.71,0.955-0.71,0.955s0,0,0.014,0.014c-0.354,0.464-0.736,0.969-1.158,1.46
	c-1.487,1.772-3.26,3.806-3.506,4.392c-0.286,0.695-0.218,1.201,0.327,1.609c0.396,0.301,1.104,0.342,1.828,0.301
	c1.336-0.097,2.276-0.424,2.741-0.629c0.723-0.259,1.567-0.654,2.358-1.24c1.46-1.078,2.347-2.619,2.266-4.65
	c-0.041-1.118-0.409-2.237-0.859-3.287c0.136-0.189,0.259-0.383,0.396-0.573c2.306-3.368,4.093-7.063,4.093-7.063
	s0.164,1.132,0.723,3.014c0.273,0.955,0.832,1.992,1.323,3.001c-2.169,1.761-3.505,3.806-3.982,5.142
	c-0.859,2.482-0.19,3.603,1.077,3.86c0.572,0.123,1.391-0.149,1.991-0.409c0.764-0.246,1.664-0.668,2.522-1.296
	c1.46-1.077,2.864-2.577,2.782-4.61c-0.041-0.926-0.286-1.84-0.627-2.728c1.841-0.765,4.215-1.187,7.242-0.832
	c6.492,0.765,7.773,4.815,7.529,6.521c-0.246,1.705-1.609,2.633-2.062,2.918c-0.449,0.287-0.6,0.384-0.559,0.588
	c0.055,0.3,0.272,0.285,0.653,0.23c0.532-0.095,3.41-1.378,3.533-4.515C512.535,36.528,508.716,32.151,501.966,32.192z
	 M451.882,49.075c-2.154,2.348-5.155,3.232-6.45,2.482c-1.393-0.805-0.847-4.27,1.8-6.751c1.609-1.515,3.683-2.919,5.061-3.778
	c0.313-0.19,0.777-0.463,1.337-0.805c0.097-0.055,0.149-0.082,0.149-0.082l0,0c0.109-0.066,0.218-0.136,0.327-0.203
	C455.074,43.485,454.146,46.608,451.882,49.075z M467.567,38.409c-0.75,1.828-2.318,6.508-3.272,6.248
	c-0.818-0.219-1.323-3.766-0.164-7.271c0.587-1.76,1.827-3.858,2.552-4.679c1.172-1.311,2.468-1.745,2.78-1.215
	C469.858,32.192,468.031,37.265,467.567,38.409z M480.511,44.604c-0.314,0.162-0.614,0.271-0.75,0.189
	c-0.097-0.055,0.136-0.271,0.136-0.271s1.623-1.748,2.265-2.537c0.368-0.465,0.805-1.01,1.269-1.623c0,0.054,0,0.121,0,0.177
	C483.429,42.625,481.411,44.028,480.511,44.604z M490.494,42.325c-0.23-0.164-0.189-0.711,0.587-2.414
	c0.3-0.668,1.009-1.787,2.224-2.864c0.137,0.437,0.231,0.858,0.219,1.254C493.509,40.935,491.626,41.916,490.494,42.325z"/>
</svg>
