<?xml version="1.0" encoding="utf-8"?>
<!-- Generator: Adobe Illustrator 16.0.0, SVG Export Plug-In . SVG Version: 6.00 Build 0)  -->
<!DOCTYPE svg PUBLIC "-//W3C//DTD SVG 1.1//EN" "http://www.w3.org/Graphics/SVG/1.1/DTD/svg11.dtd">
<svg version="1.1" id="圖層_1" xmlns="http://www.w3.org/2000/svg" xmlns:xlink="http://www.w3.org/1999/xlink" x="0px" y="0px"
	 width="142px" height="72px" viewBox="0 0 142 72" enable-background="new 0 0 142 72" xml:space="preserve">
<g>
	<path fill="#FFFFFF" d="M27.107,28.014h-4.219V16.061H9.793v11.953H5.574V0.785h4.219v11.566h13.096V0.785h4.219V28.014z"/>
	<path fill="#FFFFFF" d="M54.67,16.729c0,7.828-3.58,11.742-10.74,11.742c-6.867,0-10.301-3.785-10.301-11.355V0.785h4.219V17.01
		c0,5.168,2.133,7.752,6.398,7.752c4.137,0,6.205-2.496,6.205-7.488V0.785h4.219V16.729z"/>
	<path fill="#FFFFFF" d="M82.461,28.014H77.82l-2.549-7.084H64.373l-2.426,7.084h-4.641L67.572,0.785h4.693L82.461,28.014z
		 M74.094,17.432l-3.797-10.74c-0.141-0.387-0.281-1.072-0.422-2.057h-0.123c-0.105,0.809-0.252,1.482-0.439,2.021l-3.779,10.775
		H74.094z"/>
	<path fill="#FFFFFF" d="M109.092,28.014h-4.711L91.355,7.939c-0.48-0.738-0.832-1.377-1.055-1.916h-0.105
		c0.105,0.703,0.158,2.027,0.158,3.973v18.018h-4.096V0.785h4.992l12.639,19.688c0.598,0.938,0.996,1.588,1.195,1.951h0.088
		c-0.129-0.844-0.193-2.145-0.193-3.902V0.785h4.113V28.014z"/>
	<path fill="#FFFFFF" d="M136.971,26.168c-2.719,1.535-5.854,2.303-9.404,2.303c-4.066,0-7.318-1.236-9.756-3.709
		s-3.656-5.801-3.656-9.984c0-4.23,1.35-7.696,4.051-10.397s6.18-4.052,10.434-4.052c2.93,0,5.438,0.451,7.523,1.354v4.324
		c-2.145-1.324-4.74-1.986-7.787-1.986c-2.871,0-5.221,0.967-7.049,2.9s-2.742,4.471-2.742,7.611c0,3.234,0.84,5.757,2.521,7.567
		s3.959,2.716,6.83,2.716c1.898,0,3.498-0.352,4.799-1.055v-6.82h-5.783v-3.586h10.02V26.168z"/>
	<path fill="#FFFFFF" d="M19.9,47.607h-7.822v23.607H7.842V47.607H0.037v-3.621H19.9V47.607z"/>
	<path fill="#FFFFFF" d="M28.162,47.432v0.018v20.303v0.018v3.445h-4.219V67.77v-0.018V47.449v-0.018v-3.445h4.219V47.432z"/>
	<path fill="#FFFFFF" d="M57.834,71.215h-4.711L40.098,51.141c-0.48-0.738-0.832-1.377-1.055-1.916h-0.105
		c0.105,0.703,0.158,2.027,0.158,3.973v18.018H35V43.986h4.992l12.639,19.688c0.598,0.938,0.996,1.588,1.195,1.951h0.088
		c-0.129-0.844-0.193-2.145-0.193-3.902V43.986h4.113V71.215z"/>
	<path fill="#FFFFFF" d="M85.713,69.369c-2.719,1.535-5.854,2.303-9.404,2.303c-4.066,0-7.318-1.236-9.756-3.709
		s-3.656-5.801-3.656-9.984c0-4.23,1.351-7.697,4.052-10.398s6.179-4.051,10.433-4.051c2.93,0,5.438,0.451,7.523,1.354v4.324
		c-2.145-1.324-4.74-1.986-7.787-1.986c-2.871,0-5.221,0.967-7.049,2.9s-2.742,4.471-2.742,7.611c0,3.234,0.841,5.756,2.522,7.566
		s3.958,2.717,6.829,2.717c1.898,0,3.498-0.352,4.799-1.055v-6.82h-5.783v-3.586h10.02V69.369z"/>
	<path fill="#FFFFFF" d="M119.357,43.986l-8.93,17.297v9.932h-4.236v-9.844l-8.719-17.385h4.834l5.484,11.549
		c0,0.012,0.217,0.633,0.65,1.863h0.053c0.141-0.609,0.369-1.219,0.686-1.828l5.695-11.584H119.357z"/>
	<path fill="#FFFFFF" d="M141.963,71.215h-4.641l-2.549-7.084h-10.898l-2.426,7.084h-4.641l10.266-27.229h4.693L141.963,71.215z
		 M133.596,60.633l-3.797-10.74c-0.141-0.387-0.281-1.072-0.422-2.057h-0.123c-0.105,0.809-0.252,1.482-0.439,2.021l-3.779,10.775
		H133.596z"/>
</g>
</svg>
